<svg width="1000" height="480" viewBox="0 0 1000 480" fill="none" xmlns="http://www.w3.org/2000/svg">
<path d="M771.742 206.067V257.295C804.228 257.295 853.72 249.661 880.506 237.825V240.997L770.82 342.518L770.82 390.5H939.556V332.629C915.48 332.629 859.169 336.208 829.84 357.576V354.441L939.57 252.829L939.57 206.067H771.742Z" fill="#0F1D2A"/>
<path fill-rule="evenodd" clip-rule="evenodd" d="M370.136 390.626H429.198L421.081 346.324H424.317C428.757 362.273 447.191 394.17 485.404 394.17C532.486 394.17 570.654 351.327 570.654 298.478C570.654 245.628 532.486 202.785 485.404 202.785C463.871 202.785 444.203 211.746 429.198 226.527L427.556 228.186C428.097 227.626 428.644 227.072 429.198 226.527V139.505H370.136V390.626ZM511.228 298.478C511.228 325.059 494.822 346.324 469.666 346.324C444.874 346.324 429.198 325.059 429.198 298.478C429.198 271.896 444.874 250.631 469.666 250.631C494.822 250.631 511.228 271.896 511.228 298.478Z" fill="#0F1D2A"/>
<path fill-rule="evenodd" clip-rule="evenodd" d="M645.489 248.201C674.655 248.201 698.353 266.48 698.353 285.619V293.062L698.638 293.442C686.242 280.035 667.635 271.51 646.832 271.51C609.511 271.51 579.257 298.946 579.257 332.791C579.257 366.635 609.511 394.071 646.832 394.071C667.492 394.071 685.987 385.663 698.382 372.414C702.586 367.92 706.088 362.87 708.736 357.402L708.996 356.857H712.322L698.353 390.527H757.415V285.619C757.415 227.14 709.29 202.685 653.145 202.685C615.593 202.685 592.989 214.735 585.333 218.988V266.48L585.427 266.42C593.155 261.411 613.536 248.201 645.489 248.201ZM698.353 331.693C698.353 345.515 686.322 356.857 667.728 356.857C649.499 356.857 637.104 345.515 637.104 331.693C637.104 317.516 649.499 306.175 667.728 306.175C686.322 306.175 698.353 317.516 698.353 331.693Z" fill="#0F1D2A"/>
<path d="M121.508 106.564C131.041 92.5619 177.458 60.2075 228.233 59.7976C284.27 59.3445 301.832 91.9266 309.554 106.252L309.741 106.598V108.79C309.198 108.784 308.652 108.781 308.103 108.781C279.749 108.781 256.712 118.362 256.712 135.129V140.159H309.741V232.594C309.741 336.972 224.56 420.75 121.564 420.75L112.971 420.754C119.604 415.724 126.662 410.432 133.785 403.041C157.835 378.082 158.568 346.664 149.909 330.696C147.897 349.264 137.773 370.249 120.62 388.05C101.913 407.464 79.9729 419.503 60.3438 420.754C86.2987 362.516 100.909 299.989 121.508 106.564Z" fill="#0F1D2A"/>
</svg>
